<mxfile host="app.diagrams.net" modified="2024-03-09T12:41:12.132Z" agent="Mozilla/5.0 (Windows NT 10.0; Win64; x64) AppleWebKit/537.36 (KHTML, like Gecko) Chrome/122.0.0.0 Safari/537.36" etag="mWIY8Hm_5XI3vUGyRFC3" version="24.0.3" type="google">
  <diagram id="Fe29AIAAKXb2EHIIDDTd" name="Page-1">
    <mxGraphModel grid="1" page="1" gridSize="10" guides="1" tooltips="1" connect="1" arrows="1" fold="1" pageScale="1" pageWidth="827" pageHeight="1169" math="0" shadow="0">
      <root>
        <mxCell id="0" />
        <mxCell id="1" parent="0" />
        <mxCell id="YaXZ4KYSmufqryuwAG7I-1" value="Клиент" style="html=1;" vertex="1" parent="1">
          <mxGeometry x="40" y="40" width="110" height="50" as="geometry" />
        </mxCell>
        <mxCell id="YaXZ4KYSmufqryuwAG7I-2" value="Кассир" style="html=1;" vertex="1" parent="1">
          <mxGeometry x="510" y="40" width="110" height="50" as="geometry" />
        </mxCell>
        <mxCell id="YaXZ4KYSmufqryuwAG7I-3" value="Контролер" style="html=1;" vertex="1" parent="1">
          <mxGeometry x="800" y="40" width="110" height="50" as="geometry" />
        </mxCell>
        <mxCell id="YaXZ4KYSmufqryuwAG7I-4" value="Система" style="html=1;" vertex="1" parent="1">
          <mxGeometry x="510" y="340" width="110" height="50" as="geometry" />
        </mxCell>
        <mxCell id="YaXZ4KYSmufqryuwAG7I-6" value="" style="endArrow=none;html=1;edgeStyle=orthogonalEdgeStyle;" edge="1" parent="1" source="YaXZ4KYSmufqryuwAG7I-1" target="YaXZ4KYSmufqryuwAG7I-2">
          <mxGeometry relative="1" as="geometry">
            <mxPoint x="20" y="290" as="sourcePoint" />
            <mxPoint x="180" y="290" as="targetPoint" />
            <Array as="points">
              <mxPoint x="400" y="60" />
              <mxPoint x="400" y="60" />
            </Array>
          </mxGeometry>
        </mxCell>
        <mxCell id="YaXZ4KYSmufqryuwAG7I-11" value="" style="endArrow=none;html=1;edgeStyle=orthogonalEdgeStyle;" edge="1" parent="1" source="YaXZ4KYSmufqryuwAG7I-2" target="YaXZ4KYSmufqryuwAG7I-4">
          <mxGeometry relative="1" as="geometry">
            <mxPoint x="150" y="170" as="sourcePoint" />
            <mxPoint x="310" y="170" as="targetPoint" />
          </mxGeometry>
        </mxCell>
        <mxCell id="YaXZ4KYSmufqryuwAG7I-12" value="" style="resizable=0;html=1;align=left;verticalAlign=bottom;labelBackgroundColor=#ffffff;fontSize=10;" connectable="0" vertex="1" parent="YaXZ4KYSmufqryuwAG7I-11">
          <mxGeometry x="-1" relative="1" as="geometry" />
        </mxCell>
        <mxCell id="YaXZ4KYSmufqryuwAG7I-13" value="" style="resizable=0;html=1;align=right;verticalAlign=bottom;labelBackgroundColor=#ffffff;fontSize=10;" connectable="0" vertex="1" parent="YaXZ4KYSmufqryuwAG7I-11">
          <mxGeometry x="1" relative="1" as="geometry" />
        </mxCell>
        <mxCell id="YaXZ4KYSmufqryuwAG7I-18" value="" style="html=1;verticalAlign=bottom;endArrow=block;" edge="1" parent="1">
          <mxGeometry width="80" relative="1" as="geometry">
            <mxPoint x="250" y="50" as="sourcePoint" />
            <mxPoint x="330" y="50" as="targetPoint" />
          </mxGeometry>
        </mxCell>
        <mxCell id="YaXZ4KYSmufqryuwAG7I-21" value="" style="html=1;verticalAlign=bottom;endArrow=block;" edge="1" parent="1">
          <mxGeometry width="80" relative="1" as="geometry">
            <mxPoint x="675" y="40" as="sourcePoint" />
            <mxPoint x="745" y="40" as="targetPoint" />
            <Array as="points">
              <mxPoint x="685" y="40" />
            </Array>
          </mxGeometry>
        </mxCell>
        <mxCell id="YaXZ4KYSmufqryuwAG7I-22" value="" style="html=1;verticalAlign=bottom;endArrow=block;" edge="1" parent="1">
          <mxGeometry width="80" relative="1" as="geometry">
            <mxPoint x="590" y="250.00000000000006" as="sourcePoint" />
            <mxPoint x="590" y="320" as="targetPoint" />
          </mxGeometry>
        </mxCell>
        <mxCell id="YaXZ4KYSmufqryuwAG7I-23" value="" style="html=1;verticalAlign=bottom;endArrow=open;dashed=1;endSize=8;" edge="1" parent="1">
          <mxGeometry relative="1" as="geometry">
            <mxPoint x="330" y="80" as="sourcePoint" />
            <mxPoint x="250" y="80" as="targetPoint" />
          </mxGeometry>
        </mxCell>
        <mxCell id="YaXZ4KYSmufqryuwAG7I-24" value="" style="html=1;verticalAlign=bottom;endArrow=open;dashed=1;endSize=8;" edge="1" parent="1">
          <mxGeometry relative="1" as="geometry">
            <mxPoint x="742.5" y="80" as="sourcePoint" />
            <mxPoint x="670" y="80" as="targetPoint" />
          </mxGeometry>
        </mxCell>
        <mxCell id="YaXZ4KYSmufqryuwAG7I-26" value="" style="html=1;verticalAlign=bottom;endArrow=open;dashed=1;endSize=8;" edge="1" parent="1">
          <mxGeometry relative="1" as="geometry">
            <mxPoint x="539.5" y="320" as="sourcePoint" />
            <mxPoint x="539.5" y="250" as="targetPoint" />
          </mxGeometry>
        </mxCell>
        <mxCell id="YaXZ4KYSmufqryuwAG7I-27" value="1. Купить билет" style="text;html=1;resizable=0;points=[];autosize=1;align=left;verticalAlign=top;spacingTop=-4;" vertex="1" parent="1">
          <mxGeometry x="230" y="-20" width="110" height="20" as="geometry" />
        </mxCell>
        <mxCell id="YaXZ4KYSmufqryuwAG7I-28" value="2. Проверить наличие билета" style="text;html=1;resizable=0;points=[];autosize=1;align=left;verticalAlign=top;spacingTop=-4;" vertex="1" parent="1">
          <mxGeometry x="600" y="240" width="190" height="20" as="geometry" />
        </mxCell>
        <mxCell id="YaXZ4KYSmufqryuwAG7I-29" value="Тарифный план места" style="html=1;" vertex="1" parent="1">
          <mxGeometry x="510" y="470" width="110" height="50" as="geometry" />
        </mxCell>
        <mxCell id="YaXZ4KYSmufqryuwAG7I-30" value="" style="endArrow=none;html=1;edgeStyle=orthogonalEdgeStyle;" edge="1" parent="1" source="YaXZ4KYSmufqryuwAG7I-4" target="YaXZ4KYSmufqryuwAG7I-29">
          <mxGeometry relative="1" as="geometry">
            <mxPoint x="40" y="510" as="sourcePoint" />
            <mxPoint x="200" y="510" as="targetPoint" />
          </mxGeometry>
        </mxCell>
        <mxCell id="YaXZ4KYSmufqryuwAG7I-31" value="" style="resizable=0;html=1;align=left;verticalAlign=bottom;labelBackgroundColor=#ffffff;fontSize=10;" connectable="0" vertex="1" parent="YaXZ4KYSmufqryuwAG7I-30">
          <mxGeometry x="-1" relative="1" as="geometry" />
        </mxCell>
        <mxCell id="YaXZ4KYSmufqryuwAG7I-32" value="" style="resizable=0;html=1;align=right;verticalAlign=bottom;labelBackgroundColor=#ffffff;fontSize=10;" connectable="0" vertex="1" parent="YaXZ4KYSmufqryuwAG7I-30">
          <mxGeometry x="1" relative="1" as="geometry" />
        </mxCell>
        <mxCell id="YaXZ4KYSmufqryuwAG7I-33" value="" style="html=1;verticalAlign=bottom;endArrow=block;" edge="1" parent="1">
          <mxGeometry width="80" relative="1" as="geometry">
            <mxPoint x="590" y="407.5" as="sourcePoint" />
            <mxPoint x="590" y="452.5" as="targetPoint" />
          </mxGeometry>
        </mxCell>
        <mxCell id="YaXZ4KYSmufqryuwAG7I-34" value="" style="html=1;verticalAlign=bottom;endArrow=open;dashed=1;endSize=8;" edge="1" parent="1">
          <mxGeometry relative="1" as="geometry">
            <mxPoint x="540" y="452.5" as="sourcePoint" />
            <mxPoint x="540" y="407.5" as="targetPoint" />
          </mxGeometry>
        </mxCell>
        <mxCell id="YaXZ4KYSmufqryuwAG7I-35" value="2.3. Запросить тариф для места" style="text;html=1;resizable=0;points=[];autosize=1;align=left;verticalAlign=top;spacingTop=-4;" vertex="1" parent="1">
          <mxGeometry x="600" y="420" width="200" height="20" as="geometry" />
        </mxCell>
        <mxCell id="YaXZ4KYSmufqryuwAG7I-36" value="2.1 Ввести данные о клиенте" style="text;html=1;resizable=0;points=[];autosize=1;align=left;verticalAlign=top;spacingTop=-4;" vertex="1" parent="1">
          <mxGeometry x="600" y="260" width="180" height="20" as="geometry" />
        </mxCell>
        <mxCell id="YaXZ4KYSmufqryuwAG7I-39" value="2.4 Тариф для места" style="text;html=1;resizable=0;points=[];autosize=1;align=left;verticalAlign=top;spacingTop=-4;" vertex="1" parent="1">
          <mxGeometry x="380" y="420" width="140" height="20" as="geometry" />
        </mxCell>
        <mxCell id="YaXZ4KYSmufqryuwAG7I-40" value="2.5. Наличие билета" style="text;html=1;resizable=0;points=[];autosize=1;align=left;verticalAlign=top;spacingTop=-4;" vertex="1" parent="1">
          <mxGeometry x="380" y="270" width="140" height="20" as="geometry" />
        </mxCell>
        <mxCell id="YaXZ4KYSmufqryuwAG7I-46" value="" style="endArrow=none;html=1;edgeStyle=orthogonalEdgeStyle;" edge="1" parent="1" source="YaXZ4KYSmufqryuwAG7I-2" target="YaXZ4KYSmufqryuwAG7I-3">
          <mxGeometry relative="1" as="geometry">
            <mxPoint x="40" y="560" as="sourcePoint" />
            <mxPoint x="200" y="560" as="targetPoint" />
          </mxGeometry>
        </mxCell>
        <mxCell id="YaXZ4KYSmufqryuwAG7I-47" value="" style="resizable=0;html=1;align=left;verticalAlign=bottom;labelBackgroundColor=#ffffff;fontSize=10;" connectable="0" vertex="1" parent="YaXZ4KYSmufqryuwAG7I-46">
          <mxGeometry x="-1" relative="1" as="geometry" />
        </mxCell>
        <mxCell id="YaXZ4KYSmufqryuwAG7I-48" value="" style="resizable=0;html=1;align=right;verticalAlign=bottom;labelBackgroundColor=#ffffff;fontSize=10;" connectable="0" vertex="1" parent="YaXZ4KYSmufqryuwAG7I-46">
          <mxGeometry x="1" relative="1" as="geometry" />
        </mxCell>
        <mxCell id="YaXZ4KYSmufqryuwAG7I-49" value="2.6. Отдать билеты клиенту" style="text;html=1;resizable=0;points=[];autosize=1;align=left;verticalAlign=top;spacingTop=-4;" vertex="1" parent="1">
          <mxGeometry x="220" y="90" width="180" height="20" as="geometry" />
        </mxCell>
        <mxCell id="YaXZ4KYSmufqryuwAG7I-50" value="2.7. Оплатить" style="text;html=1;resizable=0;points=[];autosize=1;align=left;verticalAlign=top;spacingTop=-4;" vertex="1" parent="1">
          <mxGeometry x="230" width="90" height="20" as="geometry" />
        </mxCell>
        <mxCell id="YaXZ4KYSmufqryuwAG7I-51" value="3. Передать билет контролеру" style="text;html=1;resizable=0;points=[];autosize=1;align=left;verticalAlign=top;spacingTop=-4;" vertex="1" parent="1">
          <mxGeometry x="620" y="10" width="190" height="20" as="geometry" />
        </mxCell>
        <mxCell id="YaXZ4KYSmufqryuwAG7I-52" value="4. Вернуть билет с оторванным контролем" style="text;html=1;resizable=0;points=[];autosize=1;align=left;verticalAlign=top;spacingTop=-4;" vertex="1" parent="1">
          <mxGeometry x="600" y="100" width="260" height="20" as="geometry" />
        </mxCell>
        <mxCell id="YaXZ4KYSmufqryuwAG7I-55" value="2.2. Запросить данные о месте" style="text;html=1;resizable=0;points=[];autosize=1;align=left;verticalAlign=top;spacingTop=-4;" vertex="1" parent="1">
          <mxGeometry x="600" y="280" width="200" height="20" as="geometry" />
        </mxCell>
      </root>
    </mxGraphModel>
  </diagram>
</mxfile>
